<?xml version="1.0" standalone="no"?>
<!DOCTYPE svg PUBLIC "-//W3C//DTD SVG 20010904//EN"
 "http://www.w3.org/TR/2001/REC-SVG-20010904/DTD/svg10.dtd">
<svg version="1.0" xmlns="http://www.w3.org/2000/svg"
 width="1280.000000pt" height="640.000000pt" viewBox="0 0 1280.000000 640.000000"
 preserveAspectRatio="xMidYMid meet">
<metadata>
Created by potrace 1.15, written by Peter Selinger 2001-2017
</metadata>
<g transform="translate(0.000000,640.000000) scale(0.100000,-0.100000)"
fill="#454121" stroke="none">
<path d="M10940 6279 c-152 -19 -291 -68 -397 -140 -275 -186 -463 -451 -663
-939 -169 -413 -265 -534 -474 -601 -162 -52 -698 -173 -1771 -400 -700 -148
-1574 -315 -2670 -510 -567 -101 -993 -169 -2393 -381 l-142 -22 -398 196
c-580 287 -655 312 -987 338 -251 20 -379 1 -525 -77 -388 -208 -572 -548
-506 -936 41 -241 140 -443 346 -708 l78 -100 -20 -77 c-61 -237 -70 -294 -75
-482 -6 -199 8 -447 33 -570 51 -253 304 -562 557 -681 145 -67 360 -93 512
-60 495 107 1070 576 1324 1079 17 34 53 127 81 207 27 80 60 166 73 192 27
55 39 61 317 137 264 72 296 80 737 190 1892 474 3197 751 5649 1202 l152 27
138 -85 c548 -337 890 -491 1246 -562 385 -77 743 -57 1003 56 423 184 689
565 621 891 -46 224 -152 393 -461 732 -111 121 -208 242 -254 313 -47 74 -42
135 19 253 137 261 159 331 167 529 6 157 -7 260 -42 339 -124 269 -543 588
-853 647 -80 15 -313 17 -422 3z"/>
</g>
</svg>
